<svg xmlns="http://www.w3.org/2000/svg" version="1.1" xmlns:xlink="http://www.w3.org/1999/xlink" xmlns:svgjs="http://svgjs.com/svgjs" width="1920" height="1080" preserveAspectRatio="none" viewBox="0 0 1920 1080"><g mask="url(&quot;#SvgjsMask1023&quot;)" fill="none"><rect width="1920" height="1080" x="0" y="0" fill="rgba(81, 44, 168, 1)"></rect><path d="M0,748.275C173.285,753.984,349.955,861.838,507.87,790.261C669.147,717.16,779.803,547.434,822.328,375.545C862.31,213.937,781.281,53.303,729.323,-104.861C685.71,-237.623,627.726,-359.506,544.086,-471.453C454.68,-591.117,369.588,-728.837,227.864,-776.032C84.735,-823.694,-63.348,-746.628,-212.4,-723.366C-387.416,-696.052,-592.941,-746.483,-724.128,-627.461C-855.997,-507.82,-854.45,-302.543,-871.577,-125.314C-888.032,44.958,-889.346,218.12,-820.997,374.937C-751.946,533.365,-644.129,685.951,-486.809,757.49C-336.014,826.062,-165.564,742.82,0,748.275" fill="#412386"></path><path d="M1920 1777.594C2074.81 1775.9299999999998 2233.8940000000002 1851.741 2374.934 1787.891 2522.052 1721.29 2646.344 1586.586 2687.099 1430.3220000000001 2726.382 1279.701 2605.71 1138.667 2584.476 984.463 2563.057 828.92 2646.274 656.129 2562.227 523.507 2476.599 388.39099999999996 2303.156 342.875 2149.56 298.18899999999996 1996.272 253.59199999999998 1824.713 196.99400000000003 1681.35 267.231 1540.246 336.361 1499.827 513.424 1426.539 652.414 1369.1950000000002 761.168 1317.618 869.1800000000001 1299.8049999999998 990.829 1281.954 1112.736 1300.268 1231.2649999999999 1324.078 1352.149 1354.684 1507.536 1329.8429999999998 1705.7179999999998 1458.737 1797.739 1586.5819999999999 1889.011 1762.927 1779.2820000000002 1920 1777.594" fill="#6135ca"></path></g><defs><mask id="SvgjsMask1023"><rect width="1920" height="1080" fill="#ffffff"></rect></mask></defs></svg>